<?xml version="1.0" encoding="utf-8"?>
<svg
    version="1.1"
    id="layer"
    xmlns="http://www.w3.org/2000/svg"
    xmlns:xlink="http://www.w3.org/1999/xlink"
    viewBox="-135 170 830 190"
    preserveAspectRatio="xMidYMid meet">
<style type="text/css">
	.st0{fill:#D70B17;}
	.st1{fill:#FFFFFF;}
	.st2{fill:#5B5B5B;}
</style>

<!-- Red ticket icon -->
<path class="st0" d="M246.2,238.1l-9.9-17.3l-17.6,8.7l-9.9-17.3l-17.6,8.7l-9.9-17.3l-17.6,8.7l-9.9-17.3l-17.6,8.7l-9.9-17.3
	l-17.6,8.7L71.2,320.3l45.4,14.3c3-10.1,12.2-17.5,23-17.5c13.3,0,24.1,11.1,24.1,24.8l0,0.5c0.1,2.2-0.1,4.5-0.8,6.7l46.2,14.6"/>

<!-- White m on ticket -->
<path class="st1" d="M110.1,309.9c-2.4-0.4-4-2.5-4-5v-61.5c0-2.9,2.2-5.1,5-5.1h43c1.1,0,2.2,0.1,3.3,0.3c9.2,1.7,16,9.9,16,19.6
	v46.7c0,1.4-0.5,2.7-1.5,3.7c-0.9,0.9-2.2,1.5-3.5,1.5l-0.9-0.1c-2.4-0.4-4-2.5-4-5v-46.6c0-4.7-3.3-8.7-7.8-9.5l-1.6-0.2h-9.4v56.3
	c0,1.4-0.5,2.7-1.5,3.7c-0.9,0.9-2.2,1.5-3.5,1.5l-0.9-0.1c-2.4-0.4-4-2.5-4-5v-56.4l-18.8,0v56.3c0,1.4-0.5,2.7-1.5,3.6
	c-0.9,0.9-2.2,1.5-3.5,1.5L110.1,309.9"/>

<!-- White y on ticket -->
<path class="st1" d="M181.6,336.7c-2.4-0.4-4-2.5-4-5c0-1.4,0.5-2.7,1.4-3.6c0.9-0.9,2.2-1.5,3.5-1.5c4.2,0,7.8-2.8,9-6.9l5.1-17.6
	l-16.7-57.7c-0.8-2.7,0.7-5.6,3.3-6.5l2.2-0.1c1.8,0.3,3.3,1.7,3.9,3.5l12.4,43l12.6-43c0.6-2.4,3.1-4,5.7-3.5l0.3,0.1
	c2.7,0.9,4.2,3.8,3.3,6.5l-17.2,59.2l-5.4,19c-1.4,4.4-3.8,7.9-7,10.3c-3.4,2.6-7.4,4-11.6,4L181.6,336.7"/>

<!-- b -->
<path class="st2" d="M-127.7,309.3c-2.5-0.5-4.2-2.6-4.2-5.2v-91.8c0-1.5,0.5-2.8,1.5-3.8c0.9-1,2.3-1.5,3.7-1.5l0.9,0.1
	c2.5,0.5,4.3,2.6,4.3,5.2v26.1h9.8c1.2,0,2.3,0.1,3.5,0.3c9.6,1.7,16.6,10.3,16.6,20.4v29.6c0,11.4-9,20.7-20.1,20.7h-14.9
	L-127.7,309.3 M-121.6,298.7h9.8c5.4,0,9.8-4.5,9.8-10.1v-29.6c0-4.9-3.4-9.1-8.1-9.9l-1.7-0.2l-9.8,0V298.7z"/>

<!-- first o -->
<path class="st2" d="M-62,309.7c-9.6-1.7-16.5-10.3-16.5-20.4v-30.8c0-5.6,2.1-10.7,5.9-14.7c3.8-3.9,8.8-6.1,14.2-6.1
	c1.2,0,2.3,0.1,3.5,0.3c9.6,1.7,16.6,10.3,16.6,20.4l0,30.8c0,5.5-2.1,10.7-5.9,14.7c-3.8,3.9-8.8,6-14.1,6
	C-59.6,310-60.8,309.9-62,309.7 M-56.8,248.5l-1.7-0.2c-5.5,0-9.8,4.4-9.8,10.1v30.8c0,4.9,3.4,9.1,8,9.9l1.7,0.2
	c5.4,0,9.8-4.5,9.8-10.1v-30.8C-48.7,253.5-52.1,249.4-56.8,248.5"/>

<!-- second o -->
<path class="st2" d="M-8.6,309.7c-9.6-1.8-16.5-10.3-16.5-20.4v-30.8c0-11.4,9-20.7,20.1-20.7c1.2,0,2.3,0.1,3.5,0.3
	C8,239.8,15,248.4,15,258.4v30.8c0,5.5-2.1,10.7-5.9,14.7c-3.8,3.9-8.8,6-14.2,6C-6.3,310-7.5,309.9-8.6,309.7 M-3.4,248.5l-1.7-0.2
	c-5.5,0-9.8,4.4-9.8,10.1l0,30.8c0,4.9,3.4,9.1,8,9.9l1.7,0.2c2.6,0,5-1,6.9-2.9c1.9-1.9,2.9-4.4,2.9-7.2v-30.8
	C4.7,253.5,1.3,249.4-3.4,248.5"/>

<!-- k -->
<path class="st2" d="M32.4,309.9c-2.5-0.4-4.2-2.6-4.2-5.2v-92.4c0-1.5,0.5-2.8,1.5-3.8c1-1,2.3-1.5,3.7-1.5l0.9,0.1
	c2.5,0.5,4.3,2.6,4.3,5.2v54.7l23.7-27.4c1.2-1.3,3-2,4.8-1.6l2.6,1.2c2.1,2,2.3,5.3,0.4,7.5L52,267.2l18.6,35
	c0.7,1.2,0.8,2.6,0.5,3.9c-0.4,1.3-1.3,2.5-2.5,3.2c-1,0.6-2.2,0.8-3.4,0.6c-1.6-0.3-2.8-1.2-3.6-2.5l-16.7-31.6l-6.4,7.2v21.7
	c0,1.4-0.5,2.8-1.5,3.8c-1,1-2.3,1.5-3.6,1.5L32.4,309.9"/>

<!-- "theatre" sized to match "book" letter height (~98 units tall, baseline y=310) -->
<text x="258" y="310"
  font-family="'Raleway-semibold', sans-serif"
  font-size="116"
  font-weight="300"
  letter-spacing="-2"
  fill="#5B5B5B">theatre</text>
</svg>
